<svg width="168" height="30" viewBox="0 0 168 30" fill="none" xmlns="http://www.w3.org/2000/svg">
<path d="M11.1634 6.00242C8.49 4.99919 5.51 4.99919 2.83663 6.00242C1.90173 6.35326 1.25 7.22207 1.25 8.22907V22.0797C1.25 23.5946 2.83232 24.4932 4.16836 23.9918C5.98537 23.31 8.01463 23.31 9.83164 23.9918L11.7228 24.7015C11.8104 24.7344 11.905 24.7493 12 24.747V6.31638L11.1634 6.00242Z" fill="#333333"/>
<path opacity="0.3" d="M12 24.747C12.095 24.7493 12.1896 24.7344 12.2772 24.7015L14.1684 23.9918C15.9854 23.31 18.0146 23.31 19.8316 23.9918C21.1677 24.4932 22.75 23.5946 22.75 22.0797V8.22907C22.75 7.22207 22.0983 6.35326 21.1634 6.00242C18.49 4.99919 15.51 4.99919 12.8366 6.00242L12 6.31638V24.747Z" fill="#333333"/>
<path d="M37.517 23.5V6.04545H44.5057C45.7898 6.04545 46.8608 6.2358 47.7188 6.61648C48.5767 6.99716 49.2216 7.52557 49.6534 8.2017C50.0852 8.87216 50.3011 9.64489 50.3011 10.5199C50.3011 11.2017 50.1648 11.8011 49.892 12.3182C49.6193 12.8295 49.2443 13.25 48.767 13.5795C48.2955 13.9034 47.7557 14.1335 47.1477 14.2699V14.4403C47.8125 14.4687 48.4347 14.6562 49.0142 15.0028C49.5994 15.3494 50.0739 15.8352 50.4375 16.4602C50.8011 17.0795 50.983 17.8182 50.983 18.6761C50.983 19.6023 50.7528 20.429 50.2926 21.1562C49.8381 21.8778 49.1648 22.4489 48.2727 22.8693C47.3807 23.2898 46.2813 23.5 44.9744 23.5H37.517ZM41.2074 20.483H44.2159C45.2443 20.483 45.9943 20.2869 46.4659 19.8949C46.9375 19.4972 47.1733 18.9687 47.1733 18.3097C47.1733 17.8267 47.0568 17.4006 46.8239 17.0312C46.5909 16.6619 46.2585 16.3722 45.8267 16.1619C45.4006 15.9517 44.892 15.8466 44.3011 15.8466H41.2074V20.483ZM41.2074 13.3494H43.9432C44.4489 13.3494 44.8977 13.2614 45.2898 13.0852C45.6875 12.9034 46 12.6477 46.2273 12.3182C46.4602 11.9886 46.5767 11.5938 46.5767 11.1335C46.5767 10.5028 46.3523 9.99432 45.9034 9.60795C45.4602 9.22159 44.8295 9.02841 44.0114 9.02841H41.2074V13.3494ZM59.2308 23.7557C57.907 23.7557 56.7621 23.4744 55.7962 22.9119C54.8359 22.3437 54.0945 21.554 53.5717 20.5426C53.049 19.5256 52.7876 18.3466 52.7876 17.0057C52.7876 15.6534 53.049 14.4716 53.5717 13.4602C54.0945 12.4432 54.8359 11.6534 55.7962 11.0909C56.7621 10.5227 57.907 10.2386 59.2308 10.2386C60.5547 10.2386 61.6967 10.5227 62.657 11.0909C63.6229 11.6534 64.3672 12.4432 64.8899 13.4602C65.4126 14.4716 65.674 15.6534 65.674 17.0057C65.674 18.3466 65.4126 19.5256 64.8899 20.5426C64.3672 21.554 63.6229 22.3437 62.657 22.9119C61.6967 23.4744 60.5547 23.7557 59.2308 23.7557ZM59.2479 20.9432C59.8501 20.9432 60.353 20.7727 60.7564 20.4318C61.1598 20.0852 61.4638 19.6136 61.6683 19.017C61.8786 18.4205 61.9837 17.7415 61.9837 16.9801C61.9837 16.2188 61.8786 15.5398 61.6683 14.9432C61.4638 14.3466 61.1598 13.875 60.7564 13.5284C60.353 13.1818 59.8501 13.0085 59.2479 13.0085C58.6399 13.0085 58.1286 13.1818 57.7138 13.5284C57.3047 13.875 56.995 14.3466 56.7848 14.9432C56.5803 15.5398 56.478 16.2188 56.478 16.9801C56.478 17.7415 56.5803 18.4205 56.7848 19.017C56.995 19.6136 57.3047 20.0852 57.7138 20.4318C58.1286 20.7727 58.6399 20.9432 59.2479 20.9432ZM73.9496 23.7557C72.6257 23.7557 71.4808 23.4744 70.5149 22.9119C69.5547 22.3437 68.8132 21.554 68.2905 20.5426C67.7678 19.5256 67.5064 18.3466 67.5064 17.0057C67.5064 15.6534 67.7678 14.4716 68.2905 13.4602C68.8132 12.4432 69.5547 11.6534 70.5149 11.0909C71.4808 10.5227 72.6257 10.2386 73.9496 10.2386C75.2734 10.2386 76.4155 10.5227 77.3757 11.0909C78.3416 11.6534 79.0859 12.4432 79.6087 13.4602C80.1314 14.4716 80.3928 15.6534 80.3928 17.0057C80.3928 18.3466 80.1314 19.5256 79.6087 20.5426C79.0859 21.554 78.3416 22.3437 77.3757 22.9119C76.4155 23.4744 75.2734 23.7557 73.9496 23.7557ZM73.9666 20.9432C74.5689 20.9432 75.0717 20.7727 75.4751 20.4318C75.8786 20.0852 76.1825 19.6136 76.3871 19.017C76.5973 18.4205 76.7024 17.7415 76.7024 16.9801C76.7024 16.2188 76.5973 15.5398 76.3871 14.9432C76.1825 14.3466 75.8786 13.875 75.4751 13.5284C75.0717 13.1818 74.5689 13.0085 73.9666 13.0085C73.3587 13.0085 72.8473 13.1818 72.4325 13.5284C72.0234 13.875 71.7138 14.3466 71.5036 14.9432C71.299 15.5398 71.1967 16.2188 71.1967 16.9801C71.1967 17.7415 71.299 18.4205 71.5036 19.017C71.7138 19.6136 72.0234 20.0852 72.4325 20.4318C72.8473 20.7727 73.3587 20.9432 73.9666 20.9432ZM86.0433 19.733L86.0518 15.3778H86.5803L90.7734 10.4091H94.9411L89.3075 16.9886H88.4467L86.0433 19.733ZM82.7536 23.5V6.04545H86.3842V23.5H82.7536ZM90.9354 23.5L87.0831 17.7983L89.5036 15.233L95.1882 23.5H90.9354ZM106.259 11.0653C106.191 10.3778 105.898 9.84375 105.381 9.46307C104.864 9.08239 104.163 8.89204 103.276 8.89204C102.674 8.89204 102.165 8.97727 101.751 9.14773C101.336 9.3125 101.018 9.54261 100.796 9.83807C100.58 10.1335 100.472 10.4688 100.472 10.8438C100.461 11.1562 100.526 11.429 100.668 11.6619C100.816 11.8949 101.018 12.0966 101.273 12.267C101.529 12.4318 101.825 12.5767 102.16 12.7017C102.495 12.821 102.853 12.9233 103.234 13.0085L104.802 13.3835C105.563 13.554 106.262 13.7812 106.898 14.0653C107.535 14.3494 108.086 14.6989 108.552 15.1136C109.018 15.5284 109.379 16.017 109.634 16.5795C109.896 17.142 110.029 17.7869 110.035 18.5142C110.029 19.5824 109.756 20.5085 109.217 21.2926C108.683 22.071 107.91 22.6761 106.898 23.108C105.893 23.5341 104.68 23.7472 103.259 23.7472C101.85 23.7472 100.623 23.5312 99.5774 23.0994C98.5376 22.6676 97.7251 22.0284 97.1399 21.1818C96.5604 20.3295 96.2564 19.2756 96.228 18.0199H99.799C99.8388 18.6051 100.006 19.0937 100.302 19.4858C100.603 19.8722 101.004 20.1648 101.504 20.3636C102.009 20.5568 102.58 20.6534 103.217 20.6534C103.842 20.6534 104.384 20.5625 104.844 20.3807C105.31 20.1989 105.671 19.946 105.927 19.6222C106.183 19.2983 106.31 18.9261 106.31 18.5057C106.31 18.1136 106.194 17.7841 105.961 17.517C105.734 17.25 105.398 17.0227 104.955 16.8352C104.518 16.6477 103.981 16.4773 103.344 16.3239L101.444 15.8466C99.9723 15.4886 98.8104 14.929 97.9581 14.1676C97.1058 13.4062 96.6825 12.3807 96.6882 11.0909C96.6825 10.0341 96.9638 9.1108 97.532 8.32102C98.1058 7.53125 98.8928 6.91477 99.8928 6.47159C100.893 6.02841 102.029 5.80682 103.302 5.80682C104.597 5.80682 105.728 6.02841 106.694 6.47159C107.665 6.91477 108.421 7.53125 108.961 8.32102C109.501 9.1108 109.779 10.0256 109.796 11.0653H106.259ZM116.08 15.9318V23.5H112.449V6.04545H115.977V12.7188H116.131C116.426 11.946 116.903 11.3409 117.562 10.9034C118.222 10.4602 119.048 10.2386 120.043 10.2386C120.952 10.2386 121.744 10.4375 122.42 10.8352C123.102 11.2273 123.631 11.7926 124.006 12.5312C124.386 13.2642 124.574 14.142 124.568 15.1648V23.5H120.938V15.8125C120.943 15.0057 120.739 14.3778 120.324 13.929C119.915 13.4801 119.341 13.2557 118.602 13.2557C118.108 13.2557 117.67 13.3608 117.29 13.571C116.915 13.7812 116.619 14.0881 116.403 14.4915C116.193 14.8892 116.085 15.3693 116.08 15.9318ZM133.391 23.7557C132.045 23.7557 130.886 23.483 129.914 22.9375C128.948 22.3864 128.204 21.608 127.681 20.6023C127.158 19.5909 126.897 18.3949 126.897 17.0142C126.897 15.6676 127.158 14.4858 127.681 13.4688C128.204 12.4517 128.94 11.6591 129.888 11.0909C130.843 10.5227 131.962 10.2386 133.246 10.2386C134.11 10.2386 134.914 10.3778 135.658 10.6562C136.408 10.929 137.062 11.3409 137.619 11.892C138.181 12.4432 138.619 13.1364 138.931 13.9716C139.244 14.8011 139.4 15.7727 139.4 16.8864V17.8835H128.346V15.6335H135.982C135.982 15.1108 135.869 14.6477 135.641 14.2443C135.414 13.8409 135.099 13.5256 134.695 13.2983C134.298 13.0653 133.835 12.9489 133.306 12.9489C132.755 12.9489 132.266 13.0767 131.84 13.3324C131.42 13.5824 131.09 13.9205 130.852 14.3466C130.613 14.767 130.491 15.2358 130.485 15.7528V17.892C130.485 18.5398 130.604 19.0994 130.843 19.571C131.087 20.0426 131.431 20.4062 131.874 20.6619C132.317 20.9176 132.843 21.0455 133.451 21.0455C133.854 21.0455 134.224 20.9886 134.559 20.875C134.894 20.7614 135.181 20.5909 135.42 20.3636C135.658 20.1364 135.84 19.858 135.965 19.5284L139.323 19.75C139.153 20.5568 138.803 21.2614 138.275 21.8636C137.752 22.4602 137.076 22.9261 136.246 23.2614C135.423 23.5909 134.471 23.7557 133.391 23.7557ZM145.4 6.04545V23.5H141.769V6.04545H145.4ZM155.348 10.4091V13.1364H147.268V10.4091H155.348ZM149.118 23.5V9.46307C149.118 8.5142 149.303 7.72727 149.672 7.10227C150.047 6.47727 150.558 6.00852 151.206 5.69602C151.854 5.38352 152.589 5.22727 153.413 5.22727C153.97 5.22727 154.479 5.26989 154.939 5.35511C155.405 5.44034 155.751 5.51705 155.979 5.58523L155.331 8.3125C155.189 8.26705 155.013 8.22443 154.803 8.18466C154.598 8.14489 154.388 8.125 154.172 8.125C153.638 8.125 153.266 8.25 153.055 8.5C152.845 8.74432 152.74 9.08807 152.74 9.53125V23.5H149.118Z" fill="#242323"/>
</svg>
