<svg width="44" height="44" viewBox="0 0 44 44" fill="none" xmlns="http://www.w3.org/2000/svg">
<rect width="44" height="44" rx="22" fill="#242323"/>
<path d="M18 17C18 19.2091 19.7909 21 22 21C24.2091 21 26 19.2091 26 17C26 14.7909 24.2091 13 22 13" stroke="white" stroke-width="1.5" stroke-linecap="round"/>
<path d="M15 26.9347C15 26.0743 15.5409 25.3068 16.3511 25.0175V25.0175C20.004 23.7128 23.996 23.7128 27.6489 25.0175V25.0175C28.4591 25.3068 29 26.0743 29 26.9347V28.2502C29 29.4376 27.9483 30.3498 26.7728 30.1818L25.8184 30.0455C23.2856 29.6837 20.7144 29.6837 18.1816 30.0455L17.2272 30.1818C16.0517 30.3498 15 29.4376 15 28.2502V26.9347Z" stroke="white" stroke-width="1.5"/>
</svg>
