<svg width="15" height="15" viewBox="0 0 15 15" fill="none" xmlns="http://www.w3.org/2000/svg">
<path d="M6.47183 2.33347C6.93822 1.55848 8.06178 1.55848 8.52817 2.33347L9.50083 3.9497C9.66839 4.22811 9.94168 4.42667 10.2582 4.49999L12.0959 4.92561C12.9771 5.12969 13.3243 6.19825 12.7314 6.8813L11.4948 8.3058C11.2818 8.55119 11.1774 8.87247 11.2055 9.19619L11.3686 11.0755C11.4468 11.9766 10.5378 12.637 9.70501 12.2842L7.96811 11.5483C7.66891 11.4216 7.33109 11.4216 7.03189 11.5483L5.29499 12.2842C4.46215 12.637 3.55318 11.9766 3.63138 11.0755L3.79448 9.19619C3.82257 8.87247 3.71818 8.55119 3.50517 8.3058L2.26861 6.8813C1.67568 6.19825 2.02288 5.12969 2.90406 4.92561L4.74175 4.49999C5.05832 4.42667 5.33161 4.22811 5.49917 3.9497L6.47183 2.33347Z" fill="#FFCC00" stroke="#FFCC00" stroke-width="1.5"/>
</svg>
