<svg width="24" height="24" viewBox="0 0 24 24" fill="none" xmlns="http://www.w3.org/2000/svg">
<path d="M17.583 5.25C19.6092 5.25004 20.7655 7.56361 19.5498 9.18457C19.0312 9.87627 18.751 10.7175 18.751 11.582V18C18.751 20.6233 16.6242 22.7498 14.001 22.75H10.001C7.37762 22.75 5.25098 20.6234 5.25098 18V11.582C5.25092 10.7174 4.96991 9.87631 4.45117 9.18457C3.23553 7.56372 4.39203 5.25033 6.41797 5.25H17.583ZM10.001 10.25C9.58676 10.25 9.25098 10.5858 9.25098 11L9.25 17C9.25 17.4141 9.58601 17.7497 10 17.75C10.4142 17.75 10.75 17.4142 10.75 17L10.751 11C10.751 10.5859 10.415 10.2503 10.001 10.25ZM14.001 10.25C13.5868 10.25 13.251 10.5858 13.251 11L13.25 17C13.25 17.4141 13.586 17.7497 14 17.75C14.4142 17.75 14.75 17.4142 14.75 17L14.751 11C14.751 10.5859 14.415 10.2503 14.001 10.25Z" fill="#DF2626"/>
<path d="M16 6L15.4558 4.36754C15.1836 3.55086 14.4193 3 13.5585 3H10.4415C9.58066 3 8.81638 3.55086 8.54415 4.36754L8 6" stroke="#DF2626" stroke-width="1.5" stroke-linecap="round"/>
</svg>
